<svg width="15" height="14" viewBox="0 0 15 14" fill="none" xmlns="http://www.w3.org/2000/svg">
<path d="M13.8437 0H4.865C4.64175 0 4.42765 0.0884998 4.26979 0.24603C4.11193 0.403561 4.02325 0.617218 4.02325 0.84V3.36H1.498C1.27475 3.36 1.06065 3.4485 0.902793 3.60603C0.744934 3.76356 0.65625 3.97722 0.65625 4.2V13.16C0.65625 13.3828 0.744934 13.5964 0.902793 13.754C1.06065 13.9115 1.27475 14 1.498 14H10.4767C10.6999 14 10.914 13.9115 11.0719 13.754C11.2297 13.5964 11.3184 13.3828 11.3184 13.16V10.64H13.8437C14.0669 10.64 14.281 10.5515 14.4389 10.394C14.5967 10.2364 14.6854 10.0228 14.6854 9.8V0.84C14.6854 0.617218 14.5967 0.403561 14.4389 0.24603C14.281 0.0884998 14.0669 0 13.8437 0ZM9.63492 12.32H2.33975V5.04H9.63492V12.32ZM13.0019 8.96H11.3184V4.2C11.3184 3.97722 11.2297 3.76356 11.0719 3.60603C10.914 3.4485 10.6999 3.36 10.4767 3.36H5.70675V1.68H13.0019V8.96Z" fill="#525560"/>
</svg>
