<svg width="21" height="16" viewBox="0 0 21 16" fill="none" xmlns="http://www.w3.org/2000/svg">
<path d="M4.38917 16C4.13732 16 3.92636 15.9147 3.75628 15.744C3.58621 15.5733 3.50088 15.3624 3.50028 15.1111V14.2222C2.75954 14.2222 2.12991 13.963 1.6114 13.4444C1.09288 12.9259 0.833618 12.2963 0.833618 11.5556V7.11111C0.833618 6.62222 1.00784 6.20385 1.35628 5.856C1.70473 5.50815 2.1231 5.33392 2.6114 5.33333C3.09969 5.33274 3.51836 5.50696 3.8674 5.856C4.21643 6.20504 4.39036 6.62341 4.38917 7.11111V10.6667H16.8336V7.11111C16.8336 6.62222 17.0078 6.20385 17.3563 5.856C17.7047 5.50815 18.1231 5.33392 18.6114 5.33333C19.0997 5.33274 19.5184 5.50696 19.8674 5.856C20.2164 6.20504 20.3904 6.62341 20.3892 7.11111V11.5556C20.3892 12.2963 20.1299 12.9259 19.6114 13.4444C19.0929 13.963 18.4632 14.2222 17.7225 14.2222V15.1111C17.7225 15.363 17.6372 15.5742 17.4665 15.7449C17.2958 15.9156 17.0849 16.0006 16.8336 16C16.5824 15.9994 16.3714 15.9141 16.2007 15.744C16.0301 15.5739 15.9447 15.363 15.9447 15.1111V14.2222H5.27806V15.1111C5.27806 15.363 5.19273 15.5742 5.02206 15.7449C4.85139 15.9156 4.64043 16.0006 4.38917 16ZM6.16695 8.88889V7.11111C6.16695 6.2963 5.91895 5.56652 5.42295 4.92178C4.92695 4.27704 4.28606 3.82163 3.50028 3.55555V2.66667C3.50028 1.92593 3.75954 1.2963 4.27806 0.777778C4.79658 0.259259 5.42621 0 6.16695 0H15.0558C15.7966 0 16.4262 0.259259 16.9447 0.777778C17.4632 1.2963 17.7225 1.92593 17.7225 2.66667V3.55555C16.9225 3.76296 16.2781 4.19644 15.7892 4.856C15.3003 5.51555 15.0558 6.26726 15.0558 7.11111V8.88889H6.16695Z" fill="#525560"/>
</svg>
