<svg width="21" height="16" viewBox="0 0 21 16" fill="none" xmlns="http://www.w3.org/2000/svg">
<path d="M4.38929 16C4.13744 16 3.92648 15.9147 3.75641 15.744C3.58633 15.5733 3.501 15.3624 3.50041 15.1111V14.2222C2.75967 14.2222 2.13004 13.963 1.61152 13.4444C1.093 12.9259 0.83374 12.2963 0.83374 11.5556V7.11111C0.83374 6.62222 1.00796 6.20385 1.35641 5.856C1.70485 5.50815 2.12322 5.33392 2.61152 5.33333C3.09981 5.33274 3.51848 5.50696 3.86752 5.856C4.21655 6.20504 4.39048 6.62341 4.38929 7.11111V10.6667H16.8337V7.11111C16.8337 6.62222 17.008 6.20385 17.3564 5.856C17.7048 5.50815 18.1232 5.33392 18.6115 5.33333C19.0998 5.33274 19.5185 5.50696 19.8675 5.856C20.2166 6.20504 20.3905 6.62341 20.3893 7.11111V11.5556C20.3893 12.2963 20.13 12.9259 19.6115 13.4444C19.093 13.963 18.4634 14.2222 17.7226 14.2222V15.1111C17.7226 15.363 17.6373 15.5742 17.4666 15.7449C17.296 15.9156 17.085 16.0006 16.8337 16C16.5825 15.9994 16.3715 15.9141 16.2008 15.744C16.0302 15.5739 15.9448 15.363 15.9448 15.1111V14.2222H5.27818V15.1111C5.27818 15.363 5.19285 15.5742 5.02218 15.7449C4.85152 15.9156 4.64055 16.0006 4.38929 16ZM6.16707 8.88889V7.11111C6.16707 6.2963 5.91907 5.56652 5.42307 4.92178C4.92707 4.27704 4.28618 3.82163 3.50041 3.55555V2.66667C3.50041 1.92593 3.75967 1.2963 4.27818 0.777778C4.7967 0.259259 5.42633 0 6.16707 0H15.056C15.7967 0 16.4263 0.259259 16.9448 0.777778C17.4634 1.2963 17.7226 1.92593 17.7226 2.66667V3.55555C16.9226 3.76296 16.2782 4.19644 15.7893 4.856C15.3004 5.51555 15.056 6.26726 15.056 7.11111V8.88889H6.16707Z" fill="url(#paint0_linear_1_182)"/>
<defs>
<linearGradient id="paint0_linear_1_182" x1="10.6272" y1="4.35294" x2="10.516" y2="15.9989" gradientUnits="userSpaceOnUse">
<stop stop-color="#FF1A35"/>
<stop offset="1" stop-color="#A01F2E"/>
</linearGradient>
</defs>
</svg>
