<svg width="13" height="18" viewBox="0 0 13 18" fill="none" xmlns="http://www.w3.org/2000/svg">
<path d="M0.88916 0C0.88916 2.31429 2.2263 4.42286 4.31773 5.41714V18H6.03202V12H7.7463V18H9.46059V5.40857C11.552 4.42286 12.8892 2.31429 12.8892 0H11.1749C11.1749 1.13664 10.7233 2.22673 9.91962 3.03046C9.52165 3.42842 9.0492 3.74411 8.52923 3.95948C8.00926 4.17486 7.45197 4.28571 6.88916 4.28571C5.75252 4.28571 4.66243 3.83419 3.8587 3.03046C3.05498 2.22673 2.60345 1.13664 2.60345 0M6.88916 0C5.93773 0 5.17487 0.762857 5.17487 1.71429C5.17487 2.66571 5.93773 3.42857 6.88916 3.42857C7.84059 3.42857 8.60345 2.66571 8.60345 1.71429C8.60345 0.762857 7.84059 0 6.88916 0Z" fill="url(#paint0_linear_1_239)"/>
<defs>
<linearGradient id="paint0_linear_1_239" x1="6.89879" y1="4.89706" x2="6.66945" y2="17.996" gradientUnits="userSpaceOnUse">
<stop stop-color="#FF1A35"/>
<stop offset="1" stop-color="#A01F2E"/>
</linearGradient>
</defs>
</svg>
