<svg width="16" height="16" viewBox="0 0 16 16" fill="none" xmlns="http://www.w3.org/2000/svg">
<path d="M3.63636 7.2662e-08H2.36364C1.73676 7.2662e-08 1.13556 0.249025 0.692293 0.692293C0.249025 1.13556 0 1.73676 0 2.36364V13.6364C6.78431e-05 14.2317 0.224804 14.8051 0.629293 15.242C1.03378 15.6788 1.58823 15.9469 2.18182 15.9927V9.63636C2.18182 9.20237 2.35422 8.78616 2.6611 8.47928C2.96798 8.1724 3.38419 8 3.81818 8H12.1818C12.6158 8 13.032 8.1724 13.3389 8.47928C13.6458 8.78616 13.8182 9.20237 13.8182 9.63636V15.9927C14.4118 15.9469 14.9662 15.6788 15.3707 15.242C15.7752 14.8051 15.9999 14.2317 16 13.6364V4.208C16.0001 3.89749 15.939 3.59 15.8202 3.30311C15.7014 3.01623 15.5272 2.75556 15.3076 2.536L13.464 0.692364C13.2444 0.472789 12.9838 0.298627 12.6969 0.179828C12.41 0.0610295 12.1025 -7.69179e-05 11.792 7.2662e-08H11.6364V4.18182C11.6364 4.39671 11.594 4.60949 11.5118 4.80803C11.4296 5.00656 11.309 5.18695 11.1571 5.3389C11.0051 5.49085 10.8247 5.61139 10.6262 5.69362C10.4277 5.77586 10.2149 5.81818 10 5.81818H5.27273C4.83874 5.81818 4.42252 5.64578 4.11564 5.3389C3.80877 5.03202 3.63636 4.61581 3.63636 4.18182V7.2662e-08ZM10.5455 7.2662e-08H4.72727V4.18182C4.72727 4.48291 4.97164 4.72727 5.27273 4.72727H10C10.1447 4.72727 10.2834 4.66981 10.3857 4.56751C10.488 4.46522 10.5455 4.32648 10.5455 4.18182V7.2662e-08ZM12.7273 16V9.63636C12.7273 9.4917 12.6698 9.35296 12.5675 9.25067C12.4652 9.14838 12.3265 9.09091 12.1818 9.09091H3.81818C3.67352 9.09091 3.53478 9.14838 3.43249 9.25067C3.33019 9.35296 3.27273 9.4917 3.27273 9.63636V16H12.7273Z" fill="white"/>
</svg>
