<svg width="17" height="16" viewBox="0 0 17 16" fill="none" xmlns="http://www.w3.org/2000/svg">
<path d="M16.601 14.6314L15.4651 15.7674C15.3152 15.9164 15.1124 16 14.9011 16C14.6897 16 14.487 15.9164 14.3371 15.7674L4.83348 6.27975C4.57336 6.35521 4.30433 6.39556 4.03351 6.39975C3.52418 6.39938 3.02229 6.27744 2.56957 6.04405C2.11685 5.81066 1.72638 5.47258 1.43063 5.0579C1.13488 4.64323 0.942389 4.16394 0.869166 3.65989C0.795942 3.15585 0.8441 2.6416 1.00964 2.15991L3.04155 4.19183L3.46554 3.76785L4.60149 2.6319L5.02548 2.20791L2.99356 0.175993C3.47524 0.0104582 3.98949 -0.0376995 4.49354 0.0355237C4.99758 0.108747 5.47687 0.301236 5.89154 0.596986C6.30622 0.892736 6.64431 1.2832 6.87769 1.73592C7.11108 2.18864 7.23302 2.69054 7.23339 3.19987C7.22921 3.47068 7.18885 3.73972 7.11339 3.99984L16.601 13.5035C16.75 13.6533 16.8336 13.8561 16.8336 14.0674C16.8336 14.2788 16.75 14.4815 16.601 14.6314ZM1.06563 13.5035C0.916638 13.6533 0.833008 13.8561 0.833008 14.0674C0.833008 14.2788 0.916638 14.4815 1.06563 14.6314L2.20159 15.7674C2.35147 15.9164 2.55423 16 2.76557 16C2.97691 16 3.17966 15.9164 3.32954 15.7674L7.70537 11.3995L5.44146 9.13564M15.2331 0L12.0332 1.59994V3.19987L10.2973 4.9358L11.8972 6.53574L13.6331 4.79981H15.2331L16.833 1.59994L15.2331 0Z" fill="url(#paint0_linear_133_24)"/>
<defs>
<linearGradient id="paint0_linear_133_24" x1="8.84617" y1="4.35294" x2="8.71025" y2="15.9984" gradientUnits="userSpaceOnUse">
<stop stop-color="#FF1A35"/>
<stop offset="1" stop-color="#A01F2E"/>
</linearGradient>
</defs>
</svg>
