<svg width="17" height="16" viewBox="0 0 17 16" fill="none" xmlns="http://www.w3.org/2000/svg">
<path d="M2.63522 6.4C2.50094 6.92272 2.43321 7.46031 2.43362 8C2.43362 8.552 2.50402 9.088 2.63522 9.6H4.91362C4.80576 8.53606 4.80576 7.46394 4.91362 6.4H2.63522ZM3.28962 4.8H5.16642C5.37922 3.8264 5.68642 2.9544 6.06322 2.2288C4.90176 2.78834 3.93539 3.68419 3.28962 4.8ZM15.032 6.4H12.7536C12.8615 7.46394 12.8615 8.53606 12.7536 9.6H15.032C15.3014 8.55033 15.3014 7.44967 15.032 6.4ZM14.3776 4.8C13.7318 3.68419 12.7655 2.78834 11.604 2.2288C11.9816 2.9544 12.288 3.8264 12.5008 4.8H14.3776ZM6.52322 6.4C6.46328 6.93122 6.43337 7.46541 6.43362 8C6.43362 8.548 6.46402 9.084 6.52322 9.6H11.144C11.2645 8.53674 11.2645 7.46326 11.144 6.4H6.52322ZM6.80962 4.8H10.8576C10.712 4.19864 10.502 3.61473 10.2312 3.0584C9.72882 2.0544 9.19122 1.6 8.83362 1.6C8.47522 1.6 7.93842 2.0544 7.43602 3.0584C7.18402 3.564 6.97202 4.152 6.80962 4.8ZM3.28962 11.2C3.93539 12.3158 4.90176 13.2117 6.06322 13.7712C5.68562 13.0456 5.37922 12.1736 5.16642 11.2H3.28962ZM14.3776 11.2H12.5008C12.288 12.1736 11.9808 13.0456 11.604 13.7712C12.7655 13.2117 13.7318 12.3158 14.3776 11.2ZM6.80962 11.2C6.97202 11.848 7.18402 12.436 7.43602 12.9416C7.93842 13.9456 8.47602 14.4 8.83362 14.4C9.19202 14.4 9.72882 13.9456 10.2312 12.9416C10.4832 12.436 10.6952 11.848 10.8576 11.2H6.80962ZM8.83362 16C4.41522 16 0.833618 12.4184 0.833618 8C0.833618 3.5816 4.41522 0 8.83362 0C13.252 0 16.8336 3.5816 16.8336 8C16.8336 12.4184 13.252 16 8.83362 16Z" fill="url(#paint0_linear_1_106)"/>
<defs>
<linearGradient id="paint0_linear_1_106" x1="8.84646" y1="4.35294" x2="8.71053" y2="15.9984" gradientUnits="userSpaceOnUse">
<stop stop-color="#FF1A35"/>
<stop offset="1" stop-color="#A01F2E"/>
</linearGradient>
</defs>
</svg>
