<svg width="17" height="17" viewBox="0 0 17 17" fill="none" xmlns="http://www.w3.org/2000/svg">
<path d="M2.65685 2.65687C4.15715 1.15658 6.19198 0.313721 8.31371 0.313721C10.4354 0.313721 12.4703 1.15658 13.9706 2.65687C15.4709 4.15716 16.3137 6.19199 16.3137 8.31372C16.3137 10.4355 15.4709 12.4703 13.9706 13.9706C12.4703 15.4709 10.4354 16.3137 8.31371 16.3137C6.19198 16.3137 4.15715 15.4709 2.65685 13.9706C1.15656 12.4703 0.313708 10.4355 0.313709 8.31372C0.313708 6.19199 1.15656 4.15716 2.65685 2.65687ZM6.45685 4.95496C6.26931 4.76743 6.01496 4.66207 5.74974 4.66207C5.48452 4.66207 5.23017 4.76743 5.04263 4.95496C4.8551 5.1425 4.74974 5.39685 4.74974 5.66207C4.74974 5.92729 4.8551 6.18164 5.04263 6.36918L6.98718 8.31372L5.04263 10.2583C4.8551 10.4458 4.74974 10.7002 4.74974 10.9654C4.74974 11.2306 4.8551 11.4849 5.04263 11.6725C5.23017 11.86 5.48452 11.9654 5.74974 11.9654C6.01496 11.9654 6.26931 11.86 6.45685 11.6725L8.40139 9.72793L10.3459 11.6725C10.5335 11.86 10.7878 11.9654 11.053 11.9654C11.3183 11.9654 11.5726 11.86 11.7601 11.6725C11.9477 11.4849 12.053 11.2306 12.053 10.9654C12.053 10.7002 11.9477 10.4458 11.7601 10.2583L9.8156 8.31372L11.7601 6.36918C11.9477 6.18164 12.053 5.92729 12.053 5.66207C12.053 5.39685 11.9477 5.1425 11.7601 4.95496C11.5726 4.76743 11.3183 4.66207 11.053 4.66207C10.7878 4.66207 10.5335 4.76743 10.3459 4.95496L8.40139 6.89951L6.45685 4.95496Z" fill="#525560"/>
</svg>
