<svg width="15" height="14" viewBox="0 0 15 14" fill="none" xmlns="http://www.w3.org/2000/svg">
<path d="M14.3039 0H4.97054C4.81583 0 4.66746 0.0614583 4.55806 0.170854C4.44867 0.280251 4.38721 0.428624 4.38721 0.583333V3.5H1.47054C1.31583 3.5 1.16746 3.56146 1.05806 3.67085C0.948665 3.78025 0.887207 3.92862 0.887207 4.08333V13.4167C0.887207 13.5714 0.948665 13.7197 1.05806 13.8291C1.16746 13.9385 1.31583 14 1.47054 14H10.8039C10.9586 14 11.107 13.9385 11.2164 13.8291C11.3257 13.7197 11.3872 13.5714 11.3872 13.4167V10.5H14.3039C14.4586 10.5 14.607 10.4385 14.7164 10.3291C14.8257 10.2197 14.8872 10.0714 14.8872 9.91667V0.583333C14.8872 0.428624 14.8257 0.280251 14.7164 0.170854C14.607 0.0614583 14.4586 0 14.3039 0ZM10.2205 12.8333H2.05387V4.66667H10.2205V12.8333ZM13.7205 9.33333H11.3872V4.08333C11.3872 3.92862 11.3257 3.78025 11.2164 3.67085C11.107 3.56146 10.9586 3.5 10.8039 3.5H5.55387V1.16667H13.7205V9.33333Z" fill="#525560"/>
</svg>
