<svg width="17" height="11" viewBox="0 0 17 11" fill="none" xmlns="http://www.w3.org/2000/svg">
<path d="M8.76252 3.3C8.18266 3.3 7.62655 3.53178 7.21652 3.94436C6.8065 4.35695 6.57615 4.91652 6.57615 5.5C6.57615 6.08348 6.8065 6.64306 7.21652 7.05564C7.62655 7.46822 8.18266 7.7 8.76252 7.7C9.34238 7.7 9.89849 7.46822 10.3085 7.05564C10.7185 6.64306 10.9489 6.08348 10.9489 5.5C10.9489 4.91652 10.7185 4.35695 10.3085 3.94436C9.89849 3.53178 9.34238 3.3 8.76252 3.3ZM8.76252 9.16667C7.79608 9.16667 6.86923 8.78036 6.18586 8.09272C5.50249 7.40509 5.11858 6.47246 5.11858 5.5C5.11858 4.52754 5.50249 3.59491 6.18586 2.90728C6.86923 2.21964 7.79608 1.83333 8.76252 1.83333C9.72895 1.83333 10.6558 2.21964 11.3392 2.90728C12.0225 3.59491 12.4065 4.52754 12.4065 5.5C12.4065 6.47246 12.0225 7.40509 11.3392 8.09272C10.6558 8.78036 9.72895 9.16667 8.76252 9.16667ZM8.76252 0C5.11858 0 2.00665 2.28067 0.74585 5.5C2.00665 8.71933 5.11858 11 8.76252 11C12.4065 11 15.5184 8.71933 16.7792 5.5C15.5184 2.28067 12.4065 0 8.76252 0Z" fill="#525560"/>
</svg>
