<svg width="13" height="18" viewBox="0 0 13 18" fill="none" xmlns="http://www.w3.org/2000/svg">
<path d="M0.38916 0C0.38916 2.31429 1.7263 4.42286 3.81773 5.41714V18H5.53202V12H7.2463V18H8.96059V5.40857C11.052 4.42286 12.3892 2.31429 12.3892 0H10.6749C10.6749 1.13664 10.2233 2.22673 9.41962 3.03046C9.02165 3.42842 8.5492 3.74411 8.02923 3.95948C7.50926 4.17486 6.95197 4.28571 6.38916 4.28571C5.25252 4.28571 4.16243 3.83419 3.3587 3.03046C2.55498 2.22673 2.10345 1.13664 2.10345 0M6.38916 0C5.43773 0 4.67487 0.762857 4.67487 1.71429C4.67487 2.66571 5.43773 3.42857 6.38916 3.42857C7.34059 3.42857 8.10345 2.66571 8.10345 1.71429C8.10345 0.762857 7.34059 0 6.38916 0Z" fill="#525560"/>
</svg>
